<?xml version="1.0" encoding="UTF-8" standalone="no"?>
<!-- Created with Inkscape (http://www.inkscape.org/) -->

<svg
   xmlns:dc="http://purl.org/dc/elements/1.1/"
   xmlns:cc="http://creativecommons.org/ns#"
   xmlns:rdf="http://www.w3.org/1999/02/22-rdf-syntax-ns#"
   xmlns:svg="http://www.w3.org/2000/svg"
   xmlns="http://www.w3.org/2000/svg"
   xmlns:sodipodi="http://sodipodi.sourceforge.net/DTD/sodipodi-0.dtd"
   xmlns:inkscape="http://www.inkscape.org/namespaces/inkscape"
   version="1.1"
   id="svg1014"
   width="626"
   height="626"
   viewBox="0 0 626 626"
   sodipodi:docname="Captage.svg"
   inkscape:version="0.92.2 (5c3e80d, 2017-08-06)">
  <metadata
     id="metadata1020">
    <rdf:RDF>
      <cc:Work
         rdf:about="">
        <dc:format>image/svg+xml</dc:format>
        <dc:type
           rdf:resource="http://purl.org/dc/dcmitype/StillImage" />
        <dc:title></dc:title>
      </cc:Work>
    </rdf:RDF>
  </metadata>
  <defs
     id="defs1018" />
  <sodipodi:namedview
     pagecolor="#ffffff"
     bordercolor="#666666"
     borderopacity="1"
     objecttolerance="10"
     gridtolerance="10"
     guidetolerance="10"
     inkscape:pageopacity="0"
     inkscape:pageshadow="2"
     inkscape:window-width="1920"
     inkscape:window-height="1017"
     id="namedview1016"
     showgrid="false"
     inkscape:zoom="0.67891374"
     inkscape:cx="317.86351"
     inkscape:cy="98.606175"
     inkscape:window-x="-8"
     inkscape:window-y="-8"
     inkscape:window-maximized="1"
     inkscape:current-layer="svg1014" />
  <g
     id="g1717">
    <ellipse
       ry="86.237099"
       rx="110.72477"
       cy="449.60092"
       cx="311.67291"
       id="path1061"
       style="opacity:1;fill:#0000ff;fill-opacity:1;stroke:#0000ff;stroke-width:2.22815132;stroke-linecap:round;stroke-linejoin:miter;stroke-miterlimit:4;stroke-dasharray:none;stroke-opacity:1;paint-order:markers fill stroke" />
    <ellipse
       ry="98.118225"
       rx="73.642349"
       cy="407.53983"
       cx="252.30983"
       id="path1315"
       style="opacity:1;fill:#0000ff;fill-opacity:1;stroke:#0000ff;stroke-width:2.09133077;stroke-linecap:round;stroke-linejoin:miter;stroke-miterlimit:4;stroke-dasharray:none;stroke-opacity:1;paint-order:markers fill stroke" />
    <ellipse
       ry="98.118225"
       rx="73.642349"
       cy="409.36246"
       cx="369.74197"
       id="path1315-8"
       style="opacity:1;fill:#0000ff;fill-opacity:1;stroke:#0000ff;stroke-width:2.09133077;stroke-linecap:round;stroke-linejoin:miter;stroke-miterlimit:4;stroke-dasharray:none;stroke-opacity:1;paint-order:markers fill stroke" />
    <path
       inkscape:connector-curvature="0"
       id="path1394"
       d="m 309.72908,344.32272 c -2.8889,-4.8569 -7.73196,-10.96528 -12.4377,-15.68723 -20.61738,-20.68842 -47.06385,-25.7507 -71.31888,-13.65158 -7.33899,3.6609 -13.25551,8.13251 -19.93195,15.06422 -2.92879,3.04077 -5.32507,5.38359 -5.32507,5.20625 0,-0.17734 1.49324,-3.16849 3.31832,-6.64701 3.22066,-6.13844 5.67058,-10.84627 14.1313,-27.15511 4.26467,-8.22055 5.1021,-9.79559 11.21379,-21.09092 2.09219,-3.86666 4.15134,-7.73333 4.5759,-8.59259 0.42456,-0.85926 1.90728,-3.50282 3.29493,-5.87457 1.38765,-2.37174 2.52301,-4.42724 2.52301,-4.56777 0,-0.14052 1.99252,-3.88568 4.42782,-8.32258 3.72725,-6.79069 9.62212,-18.01538 15.57974,-29.66607 1.35276,-2.64547 8.83788,-18.11376 14.48987,-29.94389 18.27667,-38.25473 29.72631,-74.73909 34.85591,-111.068589 l 1.19263,-8.446604 0.64585,4.426488 c 5.14696,35.275725 15.71556,69.721265 32.19588,104.933815 4.1198,8.80255 4.81497,10.34305 5.87914,13.02809 0.96292,2.42958 9.95171,21.30441 12.89193,27.07069 4.8761,9.56289 11.96637,23.0524 15.66465,29.80261 2.38973,4.3618 4.34497,8.04552 4.34497,8.18604 0,0.14053 1.1759,2.24634 2.61311,4.67958 1.43721,2.43325 2.76756,4.84246 2.95634,5.3538 0.18878,0.51135 0.8467,1.74992 1.46205,2.75239 1.58138,2.57627 4.12874,7.34426 13.91119,26.03817 14.34454,27.41192 20.31885,39.1096 20.09076,39.33769 -0.11956,0.11957 -1.12226,-0.96917 -2.22823,-2.41941 -3.29442,-4.31994 -10.86106,-11.53403 -15.74684,-15.01319 -10.91743,-7.77426 -22.39677,-11.55809 -35.03594,-11.54857 -12.55157,0.009 -22.45825,3.04042 -33.42641,10.22685 -8.28331,5.4273 -14.99655,12.36558 -24.11794,24.92642 l -1.04152,1.43426 z"
       style="opacity:1;fill:#0000ff;fill-opacity:1;stroke:#0000ff;stroke-width:1.04152668;stroke-linecap:round;stroke-linejoin:miter;stroke-miterlimit:4;stroke-dasharray:none;stroke-opacity:1;paint-order:markers fill stroke" />
  </g>
</svg>
